<?xml version="1.0" encoding="utf-8"?>
<!-- Generator: Adobe Illustrator 23.1.0, SVG Export Plug-In . SVG Version: 6.00 Build 0)  -->
<svg version="1.1" id="Layer_1" xmlns="http://www.w3.org/2000/svg" xmlns:xlink="http://www.w3.org/1999/xlink" x="0px" y="0px"
	 width="28px" height="28px" viewBox="0 0 28 28" style="enable-background:new 0 0 28 28;" xml:space="preserve">
<title>bath</title>
<path d="M26,17v3c0,1.8-0.8,3.4-2,4.5v3c0,0.3-0.2,0.5-0.5,0.5h-1c-0.3,0-0.5-0.2-0.5-0.5v-1.8c-0.6,0.2-1.3,0.3-2,0.3H8
	c-0.7,0-1.4-0.1-2-0.3v1.7C6,27.7,5.8,28,5.5,28h-1C4.2,28,4,27.7,4,27.4v-2.9c-1.2-1.1-2-2.7-2-4.5v-3H26z M11,10.5
	c0,0.3-0.2,0.5-0.5,0.5S10,10.8,10,10.5s0.2-0.5,0.5-0.5S11,10.2,11,10.5z M12,9.5c0,0.3-0.2,0.5-0.5,0.5S11,9.8,11,9.5
	S11.2,9,11.5,9S12,9.2,12,9.5z M11,8.5C11,8.8,10.8,9,10.5,9S10,8.8,10,8.5S10.2,8,10.5,8S11,8.2,11,8.5z M13,8.5
	C13,8.8,12.8,9,12.5,9S12,8.8,12,8.5S12.2,8,12.5,8S13,8.2,13,8.5z M12,7.5C12,7.8,11.8,8,11.5,8S11,7.8,11,7.5S11.2,7,11.5,7
	S12,7.2,12,7.5z M11,6.5C11,6.8,10.8,7,10.5,7S10,6.8,10,6.5S10.2,6,10.5,6S11,6.2,11,6.5z M28,14.5v1c0,0.3-0.2,0.5-0.5,0.5h-27
	C0.2,16,0,15.8,0,15.5v-1C0,14.2,0.2,14,0.5,14H2V4c0-2.2,1.8-4,4-4c1.1,0,2.1,0.5,2.9,1.2c1-0.4,2.1-0.2,3,0.4l0.3-0.3
	c0.1-0.1,0.2-0.1,0.3,0L13.2,2c0.1,0.1,0.1,0.2,0,0.3L8.3,7.2C8.2,7.3,8,7.3,8,7.2L7.3,6.5c-0.1-0.1-0.1-0.2,0-0.3l0.3-0.3
	c-0.8-1-0.8-2.3-0.3-3.3C7,2.2,6.5,2,6,2C4.9,2,4,2.9,4,4v10h23.5C27.8,14,28,14.2,28,14.5L28,14.5z M14,7.5C14,7.8,13.8,8,13.5,8
	S13,7.8,13,7.5S13.2,7,13.5,7S14,7.2,14,7.5z M13,6.5C13,6.8,12.8,7,12.5,7S12,6.8,12,6.5S12.2,6,12.5,6S13,6.2,13,6.5z M12,5.5
	C12,5.8,11.8,6,11.5,6S11,5.8,11,5.5S11.2,5,11.5,5S12,5.2,12,5.5z M15,6.5C15,6.8,14.8,7,14.5,7S14,6.8,14,6.5S14.2,6,14.5,6
	S15,6.2,15,6.5z M14,5.5C14,5.8,13.8,6,13.5,6S13,5.8,13,5.5S13.2,5,13.5,5S14,5.2,14,5.5z M13,4.5C13,4.8,12.8,5,12.5,5
	S12,4.8,12,4.5S12.2,4,12.5,4S13,4.2,13,4.5z M16,5.5C16,5.8,15.8,6,15.5,6S15,5.8,15,5.5S15.2,5,15.5,5S16,5.2,16,5.5z M15,4.5
	C15,4.8,14.8,5,14.5,5S14,4.8,14,4.5S14.2,4,14.5,4S15,4.2,15,4.5z M17,4.5C17,4.8,16.8,5,16.5,5S16,4.8,16,4.5S16.2,4,16.5,4
	S17,4.2,17,4.5z"/>
</svg>
