<svg xmlns="http://www.w3.org/2000/svg" width="140.812" height="116.1" viewBox="0 0 140.812 116.1">
  <g id="Group_63" data-name="Group 63" transform="translate(1.015 1.263)">
    <g id="Group_62" data-name="Group 62" transform="translate(43.909 54.866)">
      <path id="Path_105" data-name="Path 105" d="M12425.385,11466.159a121.734,121.734,0,0,0,15.77-18.693c6.334-9.735,9.217-10.18,9.572-20.25s-8.145-20.027-8.145-20.027h-34.816s-8.148,9.96-7.736,20.027,3.023,10.515,9.363,20.25S12425.385,11466.159,12425.385,11466.159Z" transform="translate(-12400.015 -11407.188)" fill="#ffef1d" stroke="#000" stroke-linecap="round" stroke-linejoin="round" stroke-width="2"/>
      <path id="Path_106" data-name="Path 106" d="M12400.012,11422.237h50.344" transform="translate(-12400.012 -11402.349)" fill="#ffef1d" stroke="#000" stroke-linecap="round" stroke-width="2"/>
      <path id="Path_107" data-name="Path 107" d="M12407.749,11437.8h31.723" transform="translate(-12398.397 -11397.344)" fill="#ffef1d" stroke="#000" stroke-linecap="round" stroke-width="2"/>
    </g>
    <path id="Path_108" data-name="Path 108" d="M12419.3,11415.146s-40.035.92-44.67-.8-9.707-7.3-10.838-14.893c-.574-3.8,1.553-10.68,7.205-14.582s12.619-3.846,16.959-.609C12392.031,11387.3,12419.3,11415.146,12419.3,11415.146Z" transform="translate(-12363.7 -11360.455)" fill="#fff" stroke="#000" stroke-linecap="round" stroke-linejoin="round" stroke-width="2"/>
    <path id="Path_109" data-name="Path 109" d="M12363.7,11415.016s39.871.908,44.486-.807,9.672-7.264,10.8-14.828c.57-3.787-1.551-10.646-7.176-14.523s-12.57-3.83-16.891-.607C12390.855,11387.279,12363.7,11415.016,12363.7,11415.016Z" transform="translate(-12280.287 -11360.457)" fill="#fff" stroke="#000" stroke-linecap="round" stroke-linejoin="round" stroke-width="2"/>
    <path id="Path_110" data-name="Path 110" d="M12411.781,11407.239s-12.229,16.37-15.936,19.41-7.764,4.709-12.139,2.026-6.137-7.327-5.381-12.764,6.951-8.673,6.951-8.673Z" transform="translate(-12360.68 -11352.306)" fill="#fff" stroke="#000" stroke-linecap="round" stroke-linejoin="round" stroke-width="2"/>
    <path id="Path_111" data-name="Path 111" d="M12378.153,11407.239s12.234,16.37,15.939,19.41,7.764,4.709,12.145,2.026,6.137-7.327,5.373-12.764-6.949-8.673-6.949-8.673Z" transform="translate(-12290.776 -11352.306)" fill="#fff" stroke="#000" stroke-linecap="round" stroke-linejoin="round" stroke-width="2"/>
    <g id="Rectangle_59" data-name="Rectangle 59" transform="translate(47.519 29.507)" fill="#4adbcd" stroke="#000" stroke-linecap="round" stroke-linejoin="round" stroke-width="2">
      <rect width="43.53" height="25.11" rx="12.555" stroke="none"/>
      <rect x="1" y="1" width="41.53" height="23.11" rx="11.555" fill="none"/>
    </g>
    <path id="Path_112" data-name="Path 112" d="M12411.081,11391.719s1.07-13.547,11.693-13.547,11.9,13.547,11.9,13.547Z" transform="translate(-12353.787 -11361.654)" fill="#ffef1d" stroke="#000" stroke-linecap="round" stroke-linejoin="round" stroke-width="2"/>
    <path id="Path_113" data-name="Path 113" d="M12425.115,11383.357s.621-6.41,4.629-10.828,11.412-6.857,11.412-6.857" transform="translate(-12350.854 -11365.672)" fill="none" stroke="#000" stroke-linecap="round" stroke-linejoin="round" stroke-width="2"/>
    <path id="Path_114" data-name="Path 114" d="M12441.156,11383.357s-.623-6.41-4.635-10.828-11.406-6.857-11.406-6.857" transform="translate(-12377.534 -11365.672)" fill="none" stroke="#000" stroke-linecap="round" stroke-linejoin="round" stroke-width="2"/>
  </g>
</svg>
