<?xml version="1.0" encoding="utf-8"?>
<!-- Generator: Adobe Illustrator 23.1.0, SVG Export Plug-In . SVG Version: 6.00 Build 0)  -->
<svg version="1.1" id="Layer_1" xmlns="http://www.w3.org/2000/svg" xmlns:xlink="http://www.w3.org/1999/xlink" x="0px" y="0px"
	 viewBox="0 0 100.2 68.8" style="enable-background:new 0 0 100.2 68.8;" xml:space="preserve">
<g id="Group_65" transform="translate(1.097 1.365)" style="display:none;">
	
		<path id="Path_115" style="display:inline;fill:#FFFFFF;stroke:#000000;stroke-width:2;stroke-linecap:round;stroke-linejoin:round;" d="
		M9.7,66.2L51,34.5l41.5,31.6c0,0,3.3,1,4.9-1.3s-0.4-4.8-0.4-4.8l-10.1-7.4V29.2H70.8v11.1L51,25.4L5.1,60.3c-0.9,1.3-0.9,3,0,4.3
		C6.6,67.1,9.7,66.2,9.7,66.2z"/>
	
		<path id="Path_116" style="display:inline;fill:none;stroke:#000000;stroke-width:2;stroke-linecap:round;stroke-linejoin:round;" d="
		M76,1.1c0,0,8.9,3.3,2.3,13.7S80,28.1,80,28.1"/>
	
		<path id="Path_119" style="display:inline;fill:none;stroke:#000000;stroke-width:2;stroke-linecap:round;stroke-linejoin:round;" d="
		M84.5,0c0,0,9.5,5.5,0,15.8"/>
</g>
<g id="Group_67" transform="translate(3.011 -3.569)">
	<g id="Group_64" transform="translate(3.836 0)">
		<path id="Path_115_1_" style="fill:#FFFFFF;stroke-width:2;stroke-linecap:round;stroke-linejoin:round;" d="
			M4.2,71.1l41-31.5L86.4,71c0,0,3.3,1,4.9-1.3S90.9,65,90.9,65l-10-7.3V34.3h-16v11L45.2,30.5L-0.4,65.2c-0.9,1.3-0.9,3,0,4.3
			C1,72,4.2,71.1,4.2,71.1z"/>
		<path id="Path_116_1_" style="fill:none;stroke-width:2;stroke-linecap:round;stroke-linejoin:round;" d="
			M72.4,14.4v19.1L85,23.4"/>
		<path id="Path_117" style="stroke-width:2;stroke-linecap:round;stroke-linejoin:round;" d="
			M72.2,9.4c0,0-3.5,5.1-3.6,8.1s1.7,4.2,3.6,4.4c0.7,0,1.4-0.2,2.1-0.5c1.2-0.9,2-2.3,1.9-3.8C76.3,14.5,72.2,9.4,72.2,9.4z"/>
		<path id="Path_118" style="stroke-width:2;stroke-linecap:round;stroke-linejoin:round;" d="
			M90.3,20.7c0,0-6.1-0.4-8.7,0.9s-2.8,3.5-1.9,5.3c0.3,0.6,0.8,1.2,1.5,1.5c1.4,0.6,3,0.6,4.2-0.2C87.9,26.8,90.3,20.7,90.3,20.7z"
			/>
	</g>
	<path id="Path_125" style="stroke-width:2;stroke-linecap:round;stroke-linejoin:round;" d="
		M-1.9,58.5c0,0,2.3,3.6,4,4.3c1.3,0.6,2.8,0,3.4-1.3c0.1-0.1,0.1-0.3,0.1-0.4c0.2-0.5,0.3-1.1,0.2-1.6c-0.2-1-0.9-1.8-1.9-2.2
		C2.3,56.6-1.9,58.5-1.9,58.5z"/>
	
		<path id="Path_127" style="fill:none;stroke-width:2;stroke-linecap:round;stroke-linejoin:round;stroke-miterlimit:4;" d="
		M-0.8,48.6l13,9.4l-2.7-11"/>
	<path id="Path_128" style="stroke-width:2;stroke-linecap:round;stroke-linejoin:round;" d="
		M16.2,44.9c0,0-2.6,3.3-2.7,5.3c-0.1,1.4,1,2.7,2.4,2.8c0.1,0,0.3,0,0.4,0c0.5,0,1.1-0.1,1.6-0.4c0.9-0.5,1.4-1.5,1.4-2.5
		C19.4,48.1,16.2,44.9,16.2,44.9z"/>
	<path id="Path_129" style="fill:none;stroke-width:2;stroke-linecap:round;stroke-linejoin:round;" d="M20.4,45.1
		l5,2.5l-2-11.1"/>
	<path id="Path_131" style="stroke-width:2;stroke-linecap:round;stroke-linejoin:round;" d="
		M26.8,36.8c0,0,0.6,4.2,1.9,5.6c0.9,1.1,2.6,1.2,3.6,0.2c0.1-0.1,0.2-0.2,0.3-0.3c0.4-0.4,0.7-0.9,0.8-1.4c0.3-1-0.1-2-0.8-2.7
		C31.3,36.8,26.8,36.8,26.8,36.8z"/>
	<path id="Path_132" style="stroke-width:2;stroke-linecap:round;stroke-linejoin:round;" d="
		M33.1,31.6c0,0,2.3,3.6,4,4.3c1.3,0.6,2.8,0,3.4-1.3c0.1-0.1,0.1-0.3,0.1-0.4c0.2-0.5,0.3-1.1,0.2-1.6c-0.2-1-0.9-1.8-1.9-2.2
		C37.2,29.8,33.1,31.6,33.1,31.6z"/>
	
		<path id="Path_133" style="fill:none;stroke-width:2;stroke-linecap:round;stroke-linejoin:round;stroke-miterlimit:4;" d="
		M33,22.3l13,9.4l-2.7-11"/>
	<path id="Path_136" style="fill:none;stroke-width:2;stroke-linecap:round;stroke-linejoin:round;" d="M56.1,28.5
		L55.3,34l10-5.3"/>
	<path id="Path_137" style="stroke-width:2;stroke-linecap:round;stroke-linejoin:round;" d="M53,22.4
		c0,0-3.8,1.9-4.7,3.6c-0.7,1.2-0.3,2.8,0.9,3.5c0.1,0.1,0.2,0.1,0.4,0.2c0.5,0.2,1,0.4,1.6,0.3c1-0.1,1.9-0.7,2.4-1.6
		C54.5,26.7,53,22.4,53,22.4z"/>
	<path id="Path_138" style="fill:none;stroke-width:2;stroke-linecap:round;stroke-linejoin:round;" d="M59.4,35.8
		l3,0"/>
	<path id="Path_139" style="stroke-width:2;stroke-linecap:round;stroke-linejoin:round;" d="
		M92.6,50.9c0,0-3.8,1.9-4.7,3.6c-0.7,1.2-0.3,2.8,0.9,3.5c0.1,0.1,0.2,0.1,0.4,0.2c0.5,0.2,1,0.4,1.6,0.3c1-0.1,1.9-0.7,2.4-1.6
		C94.1,55.2,92.6,50.9,92.6,50.9z"/>
	<path id="Path_140" style="fill:none;stroke-width:2;stroke-linecap:round;stroke-linejoin:round;" d="M93.8,60.4
		l3,0"/>
</g>
</svg>
