<?xml version="1.0" encoding="utf-8"?>
<!-- Generator: Adobe Illustrator 23.1.0, SVG Export Plug-In . SVG Version: 6.00 Build 0)  -->
<svg version="1.1" id="Layer_1" xmlns="http://www.w3.org/2000/svg" xmlns:xlink="http://www.w3.org/1999/xlink" x="0px" y="0px"
	 width="100.2px" height="68.8px" viewBox="0 0 100.2 68.8" style="enable-background:new 0 0 100.2 68.8;" xml:space="preserve">
<style type="text/css">
	.st0{display:none;}
	.st1{display:inline;fill:#FFFFFF;stroke:#000000;stroke-width:2;stroke-linecap:round;stroke-linejoin:round;}
	.st2{display:inline;fill:none;stroke:#000000;stroke-width:2;stroke-linecap:round;stroke-linejoin:round;}
	.st3{stroke:#000000;stroke-width:0.75;stroke-miterlimit:10;}
	.st4{fill:none;stroke:#000000;stroke-width:0.75;stroke-miterlimit:10;}
	.st5{fill:#FFFFFF;}
</style>
<g id="Group_65" transform="translate(1.097 1.365)" class="st0">
	<path id="Path_115" class="st1" d="M9.7,66.2L51,34.5l41.5,31.6c0,0,3.3,1,4.9-1.3S97,60,97,60l-10.1-7.4V29.2H70.8v11.1L51,25.4
		L5.1,60.3c-0.9,1.3-0.9,3,0,4.3C6.6,67.1,9.7,66.2,9.7,66.2z"/>
	<path id="Path_116" class="st2" d="M76,1.1c0,0,8.9,3.3,2.3,13.7S80,28.1,80,28.1"/>
	<path id="Path_119" class="st2" d="M84.5,0c0,0,9.5,5.5,0,15.8"/>
</g>
<g id="Group_67" transform="translate(3.011 -3.569)">
	<g id="leaves_2_">
		<path id="Path_125" class="st3" d="M2.1,52.5c0,0,2.3,3.6,4,4.3c1.3,0.6,2.8,0,3.4-1.3c0.1-0.1,0.1-0.3,0.1-0.4
			c0.2-0.5,0.3-1.1,0.2-1.6c-0.2-1-0.9-1.8-1.9-2.2C6.3,50.6,2.1,52.5,2.1,52.5z"/>
		<path id="Path_127" class="st4" d="M6.2,54.6l13,9.4l-2.7-11"/>
		<path id="Path_128" class="st3" d="M16.2,47.9c0,0-2.6,3.3-2.7,5.3c-0.1,1.4,1,2.7,2.4,2.8c0.1,0,0.3,0,0.4,0
			c0.5,0,1.1-0.1,1.6-0.4c0.9-0.5,1.4-1.5,1.4-2.5C19.4,51.1,16.2,47.9,16.2,47.9z"/>
	</g>
	<g id="leaves_1_">
		<path id="Path_129" class="st4" d="M34.4,56.1l5,2.5l-2-11.1"/>
		<path id="Path_131" class="st3" d="M28.8,49.8c0,0,0.6,4.2,1.9,5.6c0.9,1.1,2.6,1.2,3.6,0.2c0.1-0.1,0.2-0.2,0.3-0.3
			c0.4-0.4,0.7-0.9,0.8-1.4c0.3-1-0.1-2-0.8-2.7C33.3,49.8,28.8,49.8,28.8,49.8z"/>
		<path id="Path_137_1_" class="st3" d="M36.2,39.8c0,0-2.2,3.7-2,5.6c0.1,1.4,1.3,2.5,2.6,2.5c0.1,0,0.2,0,0.4,0
			c0.5-0.1,1.1-0.2,1.5-0.6c0.8-0.6,1.2-1.6,1.2-2.6C39.8,42.6,36.2,39.8,36.2,39.8z"/>
	</g>
	<g id="leaves">
		<path id="Path_132" class="st3" d="M61.1,48.6c0,0,2.3,3.6,4,4.3c1.3,0.6,2.8,0,3.4-1.3c0.1-0.1,0.1-0.3,0.1-0.4
			c0.2-0.5,0.3-1.1,0.2-1.6c-0.2-1-0.9-1.8-1.9-2.2C65.2,46.8,61.1,48.6,61.1,48.6z"/>
		<path id="Path_133" class="st4" d="M66,48.3l13,9.4l-2.7-11"/>
		<path id="Path_137" class="st3" d="M78,39.1c0,0-3.8,1.9-4.7,3.6c-0.7,1.2-0.3,2.8,0.9,3.5c0.1,0.1,0.2,0.1,0.4,0.2
			c0.5,0.2,1,0.4,1.6,0.3c1-0.1,1.9-0.7,2.4-1.6C79.5,43.4,78,39.1,78,39.1z"/>
	</g>
	<g>
		<path id="Path_136" class="st4" d="M84.1,49.5L83.3,55l10-5.3"/>
		<path id="Path_139" class="st3" d="M94.6,42.9c0,0-3.8,1.9-4.7,3.6c-0.7,1.2-0.3,2.8,0.9,3.5c0.1,0.1,0.2,0.1,0.4,0.2
			c0.5,0.2,1,0.4,1.6,0.3c1-0.1,1.9-0.7,2.4-1.6C96.1,47.2,94.6,42.9,94.6,42.9z"/>
		<path id="Path_128_1_" class="st3" d="M83.1,41.9c0,0-2.6,3.3-2.7,5.3c-0.1,1.4,1,2.7,2.4,2.8c0.1,0,0.3,0,0.4,0
			c0.5,0,1.1-0.1,1.6-0.4c0.9-0.5,1.4-1.5,1.4-2.5C86.3,45.1,83.1,41.9,83.1,41.9z"/>
	</g>
	<rect x="79" y="58.7" class="st5" width="8.2" height="10.7"/>
	<rect x="10.3" y="58.8" class="st5" width="8.2" height="10.7"/>
	<path id="roof" class="st5" d="M90.2,53.7l-85,5.4c-2.3,0.1-4,2.1-3.8,4.4l0,0c0.1,2.3,2.1,4,4.4,3.8L90.7,62
		c2.3-0.1,4-2.1,3.8-4.4l0,0C94.4,55.3,92.4,53.6,90.2,53.7z"/>
</g>
</svg>
