<?xml version="1.0" encoding="utf-8"?>
<svg version="1.1" xmlns="http://www.w3.org/2000/svg" xmlns:xlink="http://www.w3.org/1999/xlink" x="0px" y="0px"
	 width="28px" height="15px" viewBox="0 0 28 15" style="enable-background:new 0 0 28 15;" xml:space="preserve">
<path d="M26,3v3c0,1.8-0.8,3.4-2,4.5v3c0,0.3-0.2,0.5-0.5,0.5h-1c-0.3,0-0.5-0.2-0.5-0.5v-1.8c-0.6,0.2-1.3,0.3-2,0.3H8
	c-0.7,0-1.4-0.1-2-0.3v1.7C6,13.7,5.8,14,5.5,14h-1C4.2,14,4,13.7,4,13.4v-2.9C2.8,9.4,2,7.8,2,6V3H26z M4,1h23.5
	C27.8,1,28,1.2,28,1.5v0v1C28,2.8,27.8,3,27.5,3h-27C0.2,3,0,2.8,0,2.5v-1C0,1.2,0.2,1,0.5,1H2"/>
</svg>
