<?xml version="1.0" encoding="utf-8"?>
<svg version="1.1" id="Layer_1" xmlns="http://www.w3.org/2000/svg" xmlns:xlink="http://www.w3.org/1999/xlink" x="0px" y="0px"
	 viewBox="0 0 100.2 68.8" style="enable-background:new 0 0 100.2 68.8;" xml:space="preserve">
<style type="text/css">
	.roof {
		fill:#FFFFFF;
		stroke:#000000;
		stroke-width:2;
		stroke-linecap:round;
		stroke-linejoin:round;

		-webkit-animation: pulse 8s ease-in-out infinite;
     -moz-animation: pulse 8s ease-in-out infinite;
      -ms-animation: pulse 8s ease-in-out infinite;
          animation: pulse 8s ease-in-out infinite;
	}

@keyframes pulse {
  0% {
    stroke: #000000;
  }

  100% {
    stroke: #7E0000;
  }
}
  
	.st1{fill:none;stroke:#000000;stroke-width:2;stroke-linecap:round;stroke-linejoin:round;}
</style>
<g id="Group_65" transform="translate(1.097 1.365)">
	<path id="roof" class="roof" d="M9.7,66.2L51,34.5l41.5,31.6c0,0,3.3,1,4.9-1.3S97,60,97,60l-10.1-7.4V29.2H70.8v11.1L51,25.4
		L5.1,60.3c-0.9,1.3-0.9,3,0,4.3C6.6,67.1,9.7,66.2,9.7,66.2z"/>
	<path id="Path_116" class="st1" d="M76,1.1c0,0,8.9,3.3,2.3,13.7S80,28.1,80,28.1"/>
	<path id="Path_119" class="st1" d="M84.5,0c0,0,9.5,5.5,0,15.8"/>
</g>
</svg>
