<?xml version="1.0" encoding="utf-8"?>
<svg version="1.1"
	 id="svg2" inkscape:version="0.48.5 r10040" sodipodi:docname="Leaves.svg" xmlns:cc="http://creativecommons.org/ns#" xmlns:dc="http://purl.org/dc/elements/1.1/" xmlns:inkscape="http://www.inkscape.org/namespaces/inkscape" xmlns:rdf="http://www.w3.org/1999/02/22-rdf-syntax-ns#" xmlns:sodipodi="http://sodipodi.sourceforge.net/DTD/sodipodi-0.dtd" xmlns:svg="http://www.w3.org/2000/svg"
	 xmlns="http://www.w3.org/2000/svg" xmlns:xlink="http://www.w3.org/1999/xlink" x="0px" y="0px" width="16px" height="16px"
	 viewBox="0 0 16 16" style="enable-background:new 0 0 16 16;" xml:space="preserve">
<style type="text/css">
	.st0{fill:#AA4400;}
</style>
<sodipodi:namedview  bordercolor="#666666" borderopacity="1.0" fit-margin-bottom="0" fit-margin-left="0" fit-margin-right="0" fit-margin-top="0" id="base" inkscape:current-layer="layer1" inkscape:cx="289.13818" inkscape:cy="362.17653" inkscape:document-units="px" inkscape:pageopacity="0.0" inkscape:pageshadow="2" inkscape:window-height="705" inkscape:window-maximized="1" inkscape:window-width="1366" inkscape:window-x="-8" inkscape:window-y="-8" inkscape:zoom="0.65788212" pagecolor="#ffffff" showgrid="false">
	</sodipodi:namedview>
<g id="layer1" transform="translate(-12.081467,-30.702162)" inkscape:groupmode="layer" inkscape:label="Layer 1">
	<path id="path3164" inkscape:connector-curvature="0" class="st0" d="M23.4,45.3c-0.1,0.1-0.2,0.1-0.3,0c-0.1,0-0.1-0.2-0.2-0.7
		c-0.1-0.9-0.7-2.6-1.3-3.4l-0.2-0.3L21.3,41c-0.4,0.3-0.5,0.6-0.4,1.4c0,0.3,0,0.5,0,0.5c0,0-0.1,0-0.1,0c0-0.1-0.1,0.1-0.2,0.4
		c-0.1,0.3-0.2,0.6-0.2,0.6c0,0-0.1,0-0.1-0.2c0-0.4-0.2-0.2-0.6,0.4c-0.1,0.2-0.3,0.4-0.4,0.4c0,0,0-0.1,0-0.1
		c0.1-0.1,0.1-0.4,0-0.6c-0.1-0.2-0.1-0.2-0.3-0.2c-0.2,0-0.7,0.2-0.8,0.3c-0.5,0.3-0.8,0.4-1.1,0.5c-0.2,0-0.3,0-0.3,0
		c0,0,0,0,0-0.1c0.4-0.2,0.5-0.3,0.5-0.6c0-0.4-0.1-0.4-1.9-0.1c-0.5,0.1-0.6,0.1-0.2-0.2c0.3-0.2,0.7-0.7,0.7-0.8
		c0-0.2,0-0.3-0.1-0.4c-0.1-0.1-0.5-0.3-0.9-0.4c-0.4-0.1-0.6-0.2-0.6-0.3c0-0.1,0.1-0.1,0.1-0.1c0.1,0.1,0.5-0.2,0.5-0.4
		c0-0.1-0.6-1-0.8-1.2c-0.1-0.1-0.3-0.3-0.4-0.6c-0.3-0.5-0.7-0.9-0.9-1.1c-0.2-0.2-0.1-0.2,0.3,0c0.6,0.2,1,0.3,1.6,0.2
		c0.2,0,0.5,0,0.6,0c0.3,0,0.6,0,0.6-0.2c0-0.1,0-0.4-0.2-0.7c-0.1-0.1-0.1-0.3-0.1-0.4c0-0.3-0.2-0.6-0.3-0.8
		c-0.5-0.7-0.7-1.1-0.7-1.2c0,0,0,0,0.1,0c0.1,0.1,0.4,0.3,0.5,0.4c0.1,0,0.2,0,0.2,0c0.1-0.1,0.1-0.1,0.1-0.4
		c0.1-0.8-0.1-1.6-0.5-2.1c-0.2-0.2-0.3-0.4-0.3-0.5c0,0,0.1,0,0.2,0.1c0.1,0.1,0.2,0.1,0.3,0.1c0.2,0,1.4,0.5,1.9,0.7
		c0.3,0.1,0.4,0.1,0.4-0.1c0-0.1,0-0.3-0.1-0.5c0-0.2-0.1-0.3-0.1-0.4c0,0,0.1,0,0.3,0.2c0.9,0.8,1.1,1,1.3,0.9
		c0.1,0,0.1-0.1,0.1-0.2c0-0.1,0-0.2,0-0.2c0-0.1,0-0.2,0.1-0.1c0,0,0.1,0.1,0.2,0.2s0.2,0.3,0.3,0.5c0.2,0.3,0.3,0.3,0.5,0.5
		c0.1,0.1,0.3,0.2,0.3,0.2c0,0,0.2-0.2,0.7-0.9c0.6-0.8,0.7-0.9,0.8-1.1c0.1-0.4,0.2-0.4,0.3-0.4c0.1,0.1,0.3,0.6,0.4,1.1
		c0,0.1,0.1,0.3,0.1,0.3c0,0.1,0.1,0.1,0.1,0.1c0,0,0.1,0,0.1,0c0,0,0,0.3,0,0.4c0,0.1,0.3,0.9,0.5,1.2c0.2,0.2,0.2,0.2,0.3,0.3
		c0.2,0.1,0.7,0,1-0.1c0.4-0.1,0.5-0.2,0.5-0.4c0-0.1,0-0.1,0-0.1c0,0,0,0,0,0c0,0,0,0,0.1,0.1c0,0.2-0.1,0.6-0.4,1.4
		c-0.1,0.3-0.2,0.4-0.1,0.5c0,0.1,0,0.1,0,0.2c0,0,0.1,0,0.3,0c0.3,0,0.5,0,0.6,0.1c0.1,0,0.1,0.1,0,0.1c-0.4,0.2-0.9,0.6-1,0.8
		c-0.2,0.4-0.2,0.5,0.1,0.6c0.1,0,0.2,0.1,0.2,0.1c0,0-0.2,0.1-0.4,0.2c-0.1,0-0.4,0.1-0.5,0.2c-0.2,0.1-0.2,0.1-0.2,0.2
		c0,0,0,0.1,0.1,0.1c0.1,0.1-0.1,0.1-0.6,0.2c-0.3,0-0.6,0-0.7,0c-0.3-0.1-0.6,0.1-1,0.6c-0.2,0.3-0.3,0.3-0.2,0.4
		c0.1,0.2,0.4,0.7,0.6,1c0.3,0.6,0.7,1.6,1,2.5c0.1,0.2,0.2,0.5,0.3,0.6C23.6,45.2,23.6,45.2,23.4,45.3L23.4,45.3z"/>
</g>
</svg>
